<svg id="Calque_1" data-name="Calque 1" xmlns="http://www.w3.org/2000/svg" viewBox="0 0 259.85 491.36"><defs><style>.cls-1{fill:#f2d8a9;}.cls-2{fill:#231f20;}</style></defs><title>logo-vin</title><rect class="cls-1" width="259.85" height="491.36" rx="26.14"/><path class="cls-2" d="M85.25,90a23.89,23.89,0,0,1,3,12,40.72,40.72,0,0,1-.5,6.06Q85.09,122.69,74.11,128T46,133.33q-5.07,0-31.76-2-.49-12.29-.49-39.29,0-29.31.16-52.89V17.89A101.48,101.48,0,0,1,41.53,13.8Q60,13.8,71.9,21.91t11.88,26.6q0,12-8.36,26v-.17a2.49,2.49,0,0,0-.32,1c0,.33.32.82,1,1.48V77A111.62,111.62,0,0,1,85.25,90Zm-28.33,2.7v.16a11,11,0,0,0-2.29-3.27,6.17,6.17,0,0,0-3-1.8,46,46,0,0,0-7.69-1,6.84,6.84,0,0,0-1.07.08,3.21,3.21,0,0,1-1.22-.08,52.15,52.15,0,0,0-1.64,12q0,5.89,1.8,9.17a49.82,49.82,0,0,0,9.25-.41,9.11,9.11,0,0,0,5.65-3.36c.76-1.09,1.15-2.89,1.15-5.4A21.07,21.07,0,0,0,56.92,92.72ZM51.68,43a34.8,34.8,0,0,0-4.09-.33,46.53,46.53,0,0,1-6.39-.82,53,53,0,0,1,.5,8.51v5.9q0,4.09.16,6.38h4.75q7.2,0,9.82-4.91a14.45,14.45,0,0,0,2.13-6.38,6.25,6.25,0,0,0-.65-2.79C56.27,45.46,54.19,43.6,51.68,43Z"/><path class="cls-2" d="M164.66,55.22l-.17,3v2.95q-.33,5.4-.32,15.88,0,11.63-.49,17.68l-.5,5.41q-.81,13.26-6.71,22.59a20.76,20.76,0,0,1-7.37,6.06A52.61,52.61,0,0,1,138.3,133a50.29,50.29,0,0,1-14.25,1.8c-2.51,0-4.25-.06-5.24-.16a43.08,43.08,0,0,1-14.32-3.52,18.9,18.9,0,0,1-9.26-8.44q-3.92-7.37-4.25-18.5l-.33-5.24c-.11-.87-.16-2.67-.16-5.4q-.83-13.42-.82-25.71,0-7.53.49-15.06a68.71,68.71,0,0,1,2.86-16,39,39,0,0,1,7.29-13.68l3.6-2a54.38,54.38,0,0,1,37.74-3,38.06,38.06,0,0,1,12.2,6q5.73,5.23,7.53,10.31a53.7,53.7,0,0,1,2.79,10.48C164.49,48.29,164.66,51.73,164.66,55.22Zm-25.87,7.54-.66-8.52a20,20,0,0,0-2.21-8.1,11.26,11.26,0,0,0-4.83-5,7.54,7.54,0,0,0-2.62-.49,13.37,13.37,0,0,0-7.69,2.62,19.13,19.13,0,0,0-3.85,4.67,27.21,27.21,0,0,0-2.87,6.14,85.11,85.11,0,0,0-1.63,18.34q0,5.56.16,8.35V80.6a66.63,66.63,0,0,1,1,8.68l.17,2.29a64.67,64.67,0,0,0,1.8,12.12v-.16a10.84,10.84,0,0,0,4.34,5,11.68,11.68,0,0,0,6.14,1.72,12.79,12.79,0,0,0,5.32-1.23,13.35,13.35,0,0,0,4.66-3.52,11.42,11.42,0,0,0,2.05-3.6,18.78,18.78,0,0,0,.41-4.59,36.62,36.62,0,0,1,.16-4.09l.17-2.13L139,88V85.68l.17-3.11V74.71l-.33-11.13Z"/><path class="cls-2" d="M246.69,53.75a483,483,0,0,1-2.79,53.38A30.58,30.58,0,0,1,234.82,126q-7.78,7.62-20.06,8.76h.16a48.7,48.7,0,0,1-5.4.33,56.64,56.64,0,0,1-18.5-3,35.31,35.31,0,0,1-14.66-9.25,22.81,22.81,0,0,1-6.14-15.23q0-12,.33-35.86l.16-10.64q.33-17.35.33-25.71,0-10.8-.16-15.88H175l9.82-.33A49.66,49.66,0,0,1,198.88,21q-.66,18.35-.66,28.17,0,23.74,2.13,52.56v-.17a10.4,10.4,0,0,0,3,5,6.34,6.34,0,0,0,4.25,1.71,7.12,7.12,0,0,0,4.92-2.12,10.82,10.82,0,0,0,3.11-5.41v.17q.64-15.06,1-47.65l.16-10.48q0-7.86.33-21.61l3.44-.49a54.65,54.65,0,0,0,6.22-.49,60.66,60.66,0,0,1,8-.5c4.7,0,8,.55,9.83,1.64h1.31Q246.68,38.85,246.69,53.75Z"/><path class="cls-2" d="M65.11,198.45q-.66,12.95-.66,26.31,0,13.61.66,22.81a33.38,33.38,0,0,0,3.51,11.51q2.85,5.6,6.8,7.56,7.67.45,11.62-7h-.22q2-4.17,2-12.5a46.92,46.92,0,0,1,.88-10.31,66,66,0,0,0,10.53.88l10.08-.22a61.79,61.79,0,0,1,14.91,1.75,48.91,48.91,0,0,1,2.63,16,47.77,47.77,0,0,1-6.25,23.68,50.52,50.52,0,0,1-17.21,18.2A47.23,47.23,0,0,1,80,304.58a56.56,56.56,0,0,1-9.21.65q-17.1,0-30-7.67t-14.47-23q-1.1-21.93-1.1-47.15,0-20.82.22-34.2l.22-9.87a31.86,31.86,0,0,1,.55-7.56,39.35,39.35,0,0,1,2.08-7.57,60.59,60.59,0,0,1,5.16-10.09,42.06,42.06,0,0,1,6.69-8.33q4.59-3.72,13.59-6.36a60.17,60.17,0,0,1,17.76-2.63,59.46,59.46,0,0,1,28.07,6.91,55.78,55.78,0,0,1,21,18.86,46.24,46.24,0,0,1,7.89,26,47.77,47.77,0,0,1-3.07,16.66,75.6,75.6,0,0,1-15.35,2q-8.32,0-23-2.85L86.38,200q-.43-10.1-2.52-15.24T75,179.81a1.9,1.9,0,0,0-.55.11,3.13,3.13,0,0,1-1,.11h.22q-6.8,1.11-7.45,4.61Q65.76,185.51,65.11,198.45Z"/><path class="cls-2" d="M234.83,300.41A146.77,146.77,0,0,1,211.14,302q-7.45,0-13.59.43-1.32-9.42-2-33.32-.45-18.42-2-28.29l-8.33-.44a44.4,44.4,0,0,0-10.09.88,119.83,119.83,0,0,0-.65,12.06q0,9.87.22,14.69v5.7l.21,5.7a135.24,135.24,0,0,1-1.09,19.95,24.64,24.64,0,0,1-12.28,2.86q-3.51,0-8.77-.44l-2-.22c-2.63-.3-4.38-.44-5.26-.44l-7,.44q-1.55-19.74-3.07-59.42T134,171.48q0-17.53.22-24.56l24.78-.44a32.53,32.53,0,0,1,10.3,1.54q1.1,9.43,1.54,21.71L171,175q.43,9.64,1.09,16.11t2.2,14.15l8.33.87a20.83,20.83,0,0,0,4.27-.43c1.39-.3,2.75-.51,4.06-.66h.44q1.53-16.67,1.53-32.23,0-11.4-.65-24.56a72.68,72.68,0,0,1,12.28-2.41,115.5,115.5,0,0,1,14-.88q5.93,0,10.3.44Z"/><path class="cls-2" d="M126.49,365.87l-.22,3.94v3.95q-.45,7.23-.44,21.27,0,15.57-.66,23.68l-.66,7.24q-1.1,17.76-9,30.26a28,28,0,0,1-9.87,8.11A70.59,70.59,0,0,1,91.18,470a67.2,67.2,0,0,1-19.07,2.41c-3.37,0-5.7-.07-7-.22A57.48,57.48,0,0,1,45.9,467.5a25.31,25.31,0,0,1-12.38-11.29q-5.26-9.87-5.71-24.78l-.43-7q-.22-1.76-.22-7.23-1.11-18-1.1-34.43,0-10.08.66-20.17a91.3,91.3,0,0,1,3.84-21.38,51.86,51.86,0,0,1,9.75-18.31l4.83-2.63a69.45,69.45,0,0,1,30.69-6.8,70.32,70.32,0,0,1,19.85,2.74,50.91,50.91,0,0,1,16.33,8q7.68,7,10.09,13.81a72.33,72.33,0,0,1,3.73,14Q126.49,358.86,126.49,365.87ZM91.84,376,91,364.55a26.76,26.76,0,0,0-3-10.85A15.13,15.13,0,0,0,81.54,347a10,10,0,0,0-3.51-.66,17.86,17.86,0,0,0-10.31,3.51,25.92,25.92,0,0,0-5.15,6.25,36.69,36.69,0,0,0-3.84,8.22q-2.19,9.66-2.19,24.56,0,7.46.22,11.18v-.22a90,90,0,0,1,1.31,11.62l.22,3.08q.87,11,2.41,16.22v-.22a14.52,14.52,0,0,0,5.82,6.69,15.71,15.71,0,0,0,8.22,2.3,17.22,17.22,0,0,0,7.12-1.64,17.82,17.82,0,0,0,6.25-4.72,15.23,15.23,0,0,0,2.74-4.82,24.74,24.74,0,0,0,.55-6.14,48,48,0,0,1,.22-5.48l.22-2.85.22-4.17v-3.07l.22-4.17V392l-.44-14.91Z"/><path class="cls-2" d="M190.29,449.85q-13.81-30.27-18.2-41.88v42.1q0,13.59.22,18.63a45.39,45.39,0,0,1-12.94,1.76q-2.19,0-6.58-.44-4.81-.43-7-.44L135,469.14V452.7q0-14-.43-39.91-.22-12.93-.22-39.25,0-35.3,2-59.2a52.58,52.58,0,0,1,13.16-1.54,96.65,96.65,0,0,1,11.73.88q6.9.88,9.53,2.63,3.07,5.7,7.57,15.9T187,352.49l8.77,20.17q-.44-15.35-.44-36.18,0-16.87.22-23.24a99.44,99.44,0,0,1,19.08-1.75,85.09,85.09,0,0,1,17.76,2V468.92a10.66,10.66,0,0,0-2.63.66c-1.47.58-4,.88-7.68.88q-1.1.21-11.62-.66c-1.75-.15-4-.29-6.69-.44a23.06,23.06,0,0,0-4.71,0Z"/></svg>